<svg xmlns="http://www.w3.org/2000/svg" width="128" height="64" viewBox="0 0 128 64" shape-rendering="crispEdges">
  <rect width="128" height="64" fill="#4faeb4"/>
  <g fill="#79d9d8">
    <rect x="2" y="2" width="28" height="12"/>
    <rect x="34" y="2" width="28" height="12"/>
    <rect x="66" y="2" width="28" height="12"/>
    <rect x="98" y="2" width="28" height="12"/>
    <rect x="-14" y="18" width="28" height="12"/>
    <rect x="18" y="18" width="28" height="12"/>
    <rect x="50" y="18" width="28" height="12"/>
    <rect x="82" y="18" width="28" height="12"/>
    <rect x="114" y="18" width="28" height="12"/>
    <rect x="2" y="34" width="28" height="12"/>
    <rect x="34" y="34" width="28" height="12"/>
    <rect x="66" y="34" width="28" height="12"/>
    <rect x="98" y="34" width="28" height="12"/>
    <rect x="-14" y="50" width="28" height="12"/>
    <rect x="18" y="50" width="28" height="12"/>
    <rect x="50" y="50" width="28" height="12"/>
    <rect x="82" y="50" width="28" height="12"/>
    <rect x="114" y="50" width="28" height="12"/>
  </g>
  <g fill="#b9f6ef">
    <rect x="4" y="4" width="20" height="2"/>
    <rect x="36" y="4" width="20" height="2"/>
    <rect x="68" y="4" width="20" height="2"/>
    <rect x="100" y="4" width="20" height="2"/>
    <rect x="20" y="20" width="20" height="2"/>
    <rect x="52" y="20" width="20" height="2"/>
    <rect x="84" y="20" width="20" height="2"/>
    <rect x="4" y="36" width="20" height="2"/>
    <rect x="36" y="36" width="20" height="2"/>
    <rect x="68" y="36" width="20" height="2"/>
    <rect x="100" y="36" width="20" height="2"/>
    <rect x="20" y="52" width="20" height="2"/>
    <rect x="52" y="52" width="20" height="2"/>
    <rect x="84" y="52" width="20" height="2"/>
  </g>
  <g fill="#9ce9e5">
    <rect x="8" y="9" width="14" height="2"/>
    <rect x="40" y="9" width="14" height="2"/>
    <rect x="72" y="9" width="14" height="2"/>
    <rect x="104" y="9" width="14" height="2"/>
    <rect x="24" y="25" width="14" height="2"/>
    <rect x="56" y="25" width="14" height="2"/>
    <rect x="88" y="25" width="14" height="2"/>
    <rect x="8" y="41" width="14" height="2"/>
    <rect x="40" y="41" width="14" height="2"/>
    <rect x="72" y="41" width="14" height="2"/>
    <rect x="104" y="41" width="14" height="2"/>
    <rect x="24" y="57" width="14" height="2"/>
    <rect x="56" y="57" width="14" height="2"/>
    <rect x="88" y="57" width="14" height="2"/>
  </g>
  <g fill="#3f99a0" opacity=".65">
    <rect x="28" y="2" width="2" height="12"/>
    <rect x="60" y="2" width="2" height="12"/>
    <rect x="92" y="2" width="2" height="12"/>
    <rect x="12" y="18" width="2" height="12"/>
    <rect x="44" y="18" width="2" height="12"/>
    <rect x="76" y="18" width="2" height="12"/>
    <rect x="108" y="18" width="2" height="12"/>
    <rect x="28" y="34" width="2" height="12"/>
    <rect x="60" y="34" width="2" height="12"/>
    <rect x="92" y="34" width="2" height="12"/>
    <rect x="12" y="50" width="2" height="12"/>
    <rect x="44" y="50" width="2" height="12"/>
    <rect x="76" y="50" width="2" height="12"/>
    <rect x="108" y="50" width="2" height="12"/>
  </g>
</svg>
