<svg xmlns="http://www.w3.org/2000/svg" width="96" height="48" viewBox="0 0 96 48" fill="none">
  <g shape-rendering="crispEdges">
    <path fill="#24140c" d="M8 14h8V8h16V4h32v4h16v6h8v8h8v12h-8v6H72v4H24v-4H8v-6H0V22h8z"/>
    <path fill="#4a2818" d="M16 14h16V8h32v6h16v8h8v8h-8v4H64v4H32v-4H16v-4H8v-8h8z"/>
    <path fill="#7d4b29" d="M24 16h12v-4h24v4h12v6h8v6h-8v4H60v4H36v-4H24v-4h-8v-6h8z"/>
    <path fill="#a96e3a" d="M32 16h24v4h8v4H52v4H28v-4h4z"/>
    <path fill="#d19a58" d="M36 18h12v4H32v-4z"/>
    <path fill="#5e351e" d="M20 28h16v4H20zM56 28h20v4H56zM32 36h28v4H32z"/>
    <path fill="#160c07" opacity=".65" d="M8 30h12v8H8zM76 28h12v8H76zM24 40h48v4H24z"/>
  </g>
  <g stroke="#d8a05d" stroke-width="4" stroke-linecap="square" opacity=".75">
    <path d="M18 24 C32 14 54 14 70 24"/>
  </g>
  <g stroke="#3b2013" stroke-width="3" stroke-linecap="square" opacity=".6">
    <path d="M18 34 C34 28 58 28 76 35"/>
  </g>
</svg>
