<svg xmlns="http://www.w3.org/2000/svg" width="32" height="56" viewBox="0 0 32 56" shape-rendering="crispEdges">
  <rect width="32" height="56" fill="none"/>
  <path fill="#0b6fa5" d="M14 18h6v6h4v10h4v8h-4v6H8v-6H4v-8h4V24h6z"/>
  <path fill="#1aa7d9" d="M14 14h4v8h4v12h4v6h-4v6H10v-6H6v-6h4V22h4z"/>
  <path fill="#73e2ff" d="M14 10h4v12h2v12h4v4h-4v6H12v-6H8v-4h4V22h2z"/>
  <path fill="#e9ffff" d="M14 8h2v12h2v10h2v4h-4V22h-2zm-4 28h4v6h-4zm10 0h4v4h-4z"/>
  <path fill="#b8f6ff" d="M6 4h4v4H6zm16 2h4v4h-4zM2 16h4v4H2zm24 12h4v4h-4zM4 48h4v4H4zm20 0h4v4h-4z"/>
</svg>
