<svg xmlns="http://www.w3.org/2000/svg" viewBox="0 0 16 32" shape-rendering="crispEdges">
  <path fill="#0b0705" d="M7 0h2v2h1v4h1v3h1v3h1v4h1v8h-1v3h-2v2H9v2H6v-1H4v-2H3v-2H2v-4H1v-8h1v-4h1V9h1V6h1V3h1V1h1z"/>
  <path fill="#e21e28" d="M7 3h2v4h1v5h1v4h1v7h-1v3H9v2H6v-1H4v-3H3v-8h1v-4h1V9h1V5h1z"/>
  <path fill="#ff6a00" d="M7 7h2v5h1v4h1v5h-1v3H8v3H6v-2H5v-5H4v-4h1v-4h1V9h1z"/>
  <path fill="#ffb300" d="M8 10h1v5h1v4h1v3H9v3H7v-3H6v-5h1v-4h1z"/>
  <path fill="#fff4b0" d="M8 16h1v3h1v3H8v4H7v-3H6v-3h2z"/>
  <rect x="2" y="3" width="1" height="1" fill="#0b0705"/>
  <rect x="3" y="2" width="1" height="1" fill="#e21e28"/>
  <rect x="4" y="2" width="1" height="1" fill="#ffb300"/>
  <rect x="5" y="2" width="1" height="1" fill="#e21e28"/>
  <rect x="12" y="4" width="1" height="1" fill="#0b0705"/>
  <rect x="13" y="2" width="1" height="1" fill="#e21e28"/>
  <rect x="14" y="3" width="1" height="1" fill="#ff6a00"/>
  <rect x="13" y="4" width="1" height="1" fill="#e21e28"/>
  <rect x="1" y="10" width="1" height="1" fill="#0b0705"/>
  <rect x="14" y="12" width="1" height="1" fill="#0b0705"/>
</svg>
