<svg xmlns="http://www.w3.org/2000/svg" width="64" height="64" viewBox="0 0 64 64" shape-rendering="crispEdges">
  <rect width="64" height="64" fill="#2296dd"/>
  <rect x="0" y="0" width="64" height="4" fill="#1065c5"/>
  <rect x="0" y="60" width="64" height="4" fill="#1065c5"/>
  <rect x="0" y="0" width="4" height="64" fill="#1065c5"/>
  <rect x="60" y="0" width="4" height="64" fill="#1065c5"/>
  <rect x="8" y="8" width="8" height="8" fill="#7edfff"/>
  <rect x="16" y="4" width="8" height="8" fill="#d4ffff"/>
  <rect x="28" y="0" width="8" height="8" fill="#86d8ff"/>
  <rect x="40" y="8" width="8" height="8" fill="#d4ffff"/>
  <rect x="48" y="4" width="8" height="8" fill="#8edfff"/>
  <rect x="4" y="28" width="8" height="12" fill="#9eefff"/>
  <rect x="8" y="20" width="8" height="8" fill="#d4ffff"/>
  <rect x="16" y="16" width="8" height="8" fill="#5fc8ff"/>
  <rect x="20" y="12" width="8" height="8" fill="#415fd4"/>
  <rect x="24" y="8" width="8" height="8" fill="#d4ffff"/>
  <rect x="32" y="8" width="8" height="8" fill="#9eefff"/>
  <rect x="44" y="16" width="8" height="8" fill="#d4ffff"/>
  <rect x="48" y="24" width="8" height="8" fill="#73d8ff"/>
  <rect x="52" y="32" width="8" height="8" fill="#d4ffff"/>
  <rect x="48" y="40" width="8" height="8" fill="#415fd4"/>
  <rect x="44" y="48" width="8" height="8" fill="#9eefff"/>
  <rect x="36" y="52" width="8" height="8" fill="#d4ffff"/>
  <rect x="28" y="56" width="8" height="8" fill="#7edfff"/>
  <rect x="20" y="52" width="8" height="8" fill="#d4ffff"/>
  <rect x="12" y="48" width="8" height="8" fill="#73d8ff"/>
  <rect x="8" y="40" width="8" height="8" fill="#d4ffff"/>
  <rect x="16" y="28" width="4" height="8" fill="#5b7de0"/>
  <rect x="44" y="28" width="4" height="8" fill="#5b7de0"/>
  <rect x="28" y="16" width="8" height="4" fill="#6ed1ff"/>
  <rect x="32" y="44" width="8" height="4" fill="#6ed1ff"/>
</svg>
