<svg xmlns="http://www.w3.org/2000/svg" width="96" height="256" viewBox="0 0 96 256" fill="none">
  <g stroke-linecap="round" stroke-linejoin="round">
    <g stroke="#3b2414" stroke-width="7" opacity=".62">
      <path d="M10 -8 C8 24 16 42 12 74 C8 106 16 130 12 162 C8 196 16 222 10 264"/>
      <path d="M86 -8 C88 24 80 42 84 74 C88 106 80 130 84 162 C88 196 80 222 86 264"/>
      <path d="M-24 -30 C-2 -18 18 -2 36 12 C58 30 76 44 120 58"/>
      <path d="M-24 -10 C-2 2 18 18 36 32 C58 50 76 64 120 78"/>
      <path d="M-24 10 C-2 22 18 38 36 52 C58 70 76 84 120 98"/>
      <path d="M-24 30 C-2 42 18 58 36 72 C58 90 76 104 120 118"/>
      <path d="M-24 50 C-2 62 18 78 36 92 C58 110 76 124 120 138"/>
      <path d="M-24 70 C-2 82 18 98 36 112 C58 130 76 144 120 158"/>
      <path d="M-24 90 C-2 102 18 118 36 132 C58 150 76 164 120 178"/>
      <path d="M-24 110 C-2 122 18 138 36 152 C58 170 76 184 120 198"/>
      <path d="M-24 130 C-2 142 18 158 36 172 C58 190 76 204 120 218"/>
      <path d="M-24 150 C-2 162 18 178 36 192 C58 210 76 224 120 238"/>
      <path d="M-24 170 C-2 182 18 198 36 212 C58 230 76 244 120 258"/>
      <path d="M-24 190 C-2 202 18 218 36 232 C58 250 76 264 120 278"/>
      <path d="M120 -30 C98 -18 78 -2 60 12 C38 30 20 44 -24 58"/>
      <path d="M120 -10 C98 2 78 18 60 32 C38 50 20 64 -24 78"/>
      <path d="M120 10 C98 22 78 38 60 52 C38 70 20 84 -24 98"/>
      <path d="M120 30 C98 42 78 58 60 72 C38 90 20 104 -24 118"/>
      <path d="M120 50 C98 62 78 78 60 92 C38 110 20 124 -24 138"/>
      <path d="M120 70 C98 82 78 98 60 112 C38 130 20 144 -24 158"/>
      <path d="M120 90 C98 102 78 118 60 132 C38 150 20 164 -24 178"/>
      <path d="M120 110 C98 122 78 138 60 152 C38 170 20 184 -24 198"/>
      <path d="M120 130 C98 142 78 158 60 172 C38 190 20 204 -24 218"/>
      <path d="M120 150 C98 162 78 178 60 192 C38 210 20 224 -24 238"/>
      <path d="M120 170 C98 182 78 198 60 212 C38 230 20 244 -24 258"/>
      <path d="M120 190 C98 202 78 218 60 232 C38 250 20 264 -24 278"/>
    </g>
    <g stroke="#b87538" stroke-width="4.5" opacity=".92">
      <path d="M10 -8 C8 24 16 42 12 74 C8 106 16 130 12 162 C8 196 16 222 10 264"/>
      <path d="M86 -8 C88 24 80 42 84 74 C88 106 80 130 84 162 C88 196 80 222 86 264"/>
      <path d="M-24 -30 C-2 -18 18 -2 36 12 C58 30 76 44 120 58"/>
      <path d="M-24 -10 C-2 2 18 18 36 32 C58 50 76 64 120 78"/>
      <path d="M-24 10 C-2 22 18 38 36 52 C58 70 76 84 120 98"/>
      <path d="M-24 30 C-2 42 18 58 36 72 C58 90 76 104 120 118"/>
      <path d="M-24 50 C-2 62 18 78 36 92 C58 110 76 124 120 138"/>
      <path d="M-24 70 C-2 82 18 98 36 112 C58 130 76 144 120 158"/>
      <path d="M-24 90 C-2 102 18 118 36 132 C58 150 76 164 120 178"/>
      <path d="M-24 110 C-2 122 18 138 36 152 C58 170 76 184 120 198"/>
      <path d="M-24 130 C-2 142 18 158 36 172 C58 190 76 204 120 218"/>
      <path d="M-24 150 C-2 162 18 178 36 192 C58 210 76 224 120 238"/>
      <path d="M-24 170 C-2 182 18 198 36 212 C58 230 76 244 120 258"/>
      <path d="M-24 190 C-2 202 18 218 36 232 C58 250 76 264 120 278"/>
      <path d="M120 -30 C98 -18 78 -2 60 12 C38 30 20 44 -24 58"/>
      <path d="M120 -10 C98 2 78 18 60 32 C38 50 20 64 -24 78"/>
      <path d="M120 10 C98 22 78 38 60 52 C38 70 20 84 -24 98"/>
      <path d="M120 30 C98 42 78 58 60 72 C38 90 20 104 -24 118"/>
      <path d="M120 50 C98 62 78 78 60 92 C38 110 20 124 -24 138"/>
      <path d="M120 70 C98 82 78 98 60 112 C38 130 20 144 -24 158"/>
      <path d="M120 90 C98 102 78 118 60 132 C38 150 20 164 -24 178"/>
      <path d="M120 110 C98 122 78 138 60 152 C38 170 20 184 -24 198"/>
      <path d="M120 130 C98 142 78 158 60 172 C38 190 20 204 -24 218"/>
      <path d="M120 150 C98 162 78 178 60 192 C38 210 20 224 -24 238"/>
      <path d="M120 170 C98 182 78 198 60 212 C38 230 20 244 -24 258"/>
      <path d="M120 190 C98 202 78 218 60 232 C38 250 20 264 -24 278"/>
    </g>
    <g stroke="#f0bf72" stroke-width="1.8" opacity=".76">
      <path d="M10 -8 C8 24 16 42 12 74 C8 106 16 130 12 162 C8 196 16 222 10 264"/>
      <path d="M86 -8 C88 24 80 42 84 74 C88 106 80 130 84 162 C88 196 80 222 86 264"/>
      <path d="M-24 -10 C-2 2 18 18 36 32 C58 50 76 64 120 78"/>
      <path d="M-24 30 C-2 42 18 58 36 72 C58 90 76 104 120 118"/>
      <path d="M-24 70 C-2 82 18 98 36 112 C58 130 76 144 120 158"/>
      <path d="M-24 110 C-2 122 18 138 36 152 C58 170 76 184 120 198"/>
      <path d="M-24 150 C-2 162 18 178 36 192 C58 210 76 224 120 238"/>
      <path d="M-24 190 C-2 202 18 218 36 232 C58 250 76 264 120 278"/>
      <path d="M120 -30 C98 -18 78 -2 60 12 C38 30 20 44 -24 58"/>
      <path d="M120 10 C98 22 78 38 60 52 C38 70 20 84 -24 98"/>
      <path d="M120 50 C98 62 78 78 60 92 C38 110 20 124 -24 138"/>
      <path d="M120 90 C98 102 78 118 60 132 C38 150 20 164 -24 178"/>
      <path d="M120 130 C98 142 78 158 60 172 C38 190 20 204 -24 218"/>
      <path d="M120 170 C98 182 78 198 60 212 C38 230 20 244 -24 258"/>
    </g>
  </g>
  <g fill="#2f1d10" opacity=".92">
    <circle cx="12" cy="8" r="3.2"/><circle cx="36" cy="8" r="3.4"/><circle cx="60" cy="8" r="3.4"/><circle cx="84" cy="8" r="3.2"/>
    <circle cx="24" cy="24" r="3.4"/><circle cx="48" cy="24" r="3.7"/><circle cx="72" cy="24" r="3.4"/>
    <circle cx="12" cy="40" r="3.2"/><circle cx="36" cy="40" r="3.5"/><circle cx="60" cy="40" r="3.5"/><circle cx="84" cy="40" r="3.2"/>
    <circle cx="24" cy="56" r="3.4"/><circle cx="48" cy="56" r="3.8"/><circle cx="72" cy="56" r="3.4"/>
    <circle cx="12" cy="72" r="3.2"/><circle cx="36" cy="72" r="3.5"/><circle cx="60" cy="72" r="3.5"/><circle cx="84" cy="72" r="3.2"/>
    <circle cx="24" cy="88" r="3.4"/><circle cx="48" cy="88" r="3.8"/><circle cx="72" cy="88" r="3.4"/>
    <circle cx="12" cy="104" r="3.2"/><circle cx="36" cy="104" r="3.5"/><circle cx="60" cy="104" r="3.5"/><circle cx="84" cy="104" r="3.2"/>
    <circle cx="24" cy="120" r="3.4"/><circle cx="48" cy="120" r="3.8"/><circle cx="72" cy="120" r="3.4"/>
    <circle cx="12" cy="136" r="3.2"/><circle cx="36" cy="136" r="3.5"/><circle cx="60" cy="136" r="3.5"/><circle cx="84" cy="136" r="3.2"/>
    <circle cx="24" cy="152" r="3.4"/><circle cx="48" cy="152" r="3.8"/><circle cx="72" cy="152" r="3.4"/>
    <circle cx="12" cy="168" r="3.2"/><circle cx="36" cy="168" r="3.5"/><circle cx="60" cy="168" r="3.5"/><circle cx="84" cy="168" r="3.2"/>
    <circle cx="24" cy="184" r="3.4"/><circle cx="48" cy="184" r="3.8"/><circle cx="72" cy="184" r="3.4"/>
    <circle cx="12" cy="200" r="3.2"/><circle cx="36" cy="200" r="3.5"/><circle cx="60" cy="200" r="3.5"/><circle cx="84" cy="200" r="3.2"/>
    <circle cx="24" cy="216" r="3.4"/><circle cx="48" cy="216" r="3.8"/><circle cx="72" cy="216" r="3.4"/>
    <circle cx="12" cy="232" r="3.2"/><circle cx="36" cy="232" r="3.5"/><circle cx="60" cy="232" r="3.5"/><circle cx="84" cy="232" r="3.2"/>
    <circle cx="24" cy="248" r="3.2"/><circle cx="48" cy="248" r="3.5"/><circle cx="72" cy="248" r="3.2"/>
  </g>
  <g fill="#f1c278" opacity=".82">
    <circle cx="12" cy="8" r="1.2"/><circle cx="48" cy="24" r="1.4"/><circle cx="84" cy="40" r="1.2"/>
    <circle cx="24" cy="56" r="1.3"/><circle cx="60" cy="72" r="1.4"/><circle cx="12" cy="104" r="1.2"/>
    <circle cx="48" cy="120" r="1.4"/><circle cx="84" cy="136" r="1.2"/><circle cx="24" cy="152" r="1.3"/>
    <circle cx="60" cy="168" r="1.4"/><circle cx="12" cy="200" r="1.2"/><circle cx="48" cy="216" r="1.4"/>
    <circle cx="84" cy="232" r="1.2"/><circle cx="24" cy="248" r="1.2"/>
  </g>
</svg>
