<svg xmlns="http://www.w3.org/2000/svg" viewBox="0 0 64 128" shape-rendering="crispEdges">
  <g>
    <rect x="4" y="28" width="4" height="4" fill="#ff3150"/>
    <rect x="56" y="31" width="5" height="5" fill="#7b5cff"/>
    <rect x="8" y="58" width="5" height="5" fill="#22d7ff"/>
    <rect x="52" y="72" width="6" height="6" fill="#39e75f"/>
    <rect x="44" y="103" width="5" height="5" fill="#ffcb2f"/>
  </g>
  <g>
    <path fill="#070808" d="M13 9h14v4h4v12h-4v4H13v-4H9V13h4z"/>
    <path fill="#e52b48" d="M16 12h9v3h3v8h-3v3h-9v-3h-3v-8h3z"/>
    <path fill="#ff7381" d="M18 13h6v3h-2v3h-6v-3h2z"/>
    <path fill="#a71932" d="M24 20h3v3h-4v3h-5v-3h6z"/>
  </g>
  <g>
    <path fill="#070808" d="M29 3h15v4h4v10h-4v4H29v-4h-4V7h4z"/>
    <path fill="#ff8a1f" d="M32 6h10v3h3v6h-3v3H32v-3h-3V9h3z"/>
    <path fill="#ffd03c" d="M34 7h7v3h-3v2h-6v-3h2z"/>
    <path fill="#d95516" d="M41 13h3v2h-4v3h-6v-3h7z"/>
  </g>
  <g>
    <path fill="#070808" d="M43 15h13v4h4v12h-4v4H43v-4h-4V19h4z"/>
    <path fill="#7055ff" d="M46 18h8v3h3v8h-3v3h-8v-3h-3v-8h3z"/>
    <path fill="#b3a2ff" d="M48 19h5v3h-2v4h-5v-4h2z"/>
    <path fill="#422ca8" d="M54 26h3v3h-4v3h-5v-3h6z"/>
  </g>
  <g>
    <path fill="#070808" d="M18 27h27v4h8v8h4v25h-4v16h-6v13h-5v15h-7v9H22v-8h-6V96h-4V78H8V48h4V35h6z"/>
    <path fill="#6b2cff" d="M18 75h28v5h4v12h-5v12h-7v9H24v-7h-6V93h-4V82h4z"/>
    <path fill="#16a9ff" d="M18 32h25v4h6v13h4v12h-5v10h-6v8H21v-5h-5V62h-4V47h4V36h2z"/>
    <path fill="#27e061" d="M20 35h22v4h5v8h4v6H17v-5h-2v-8h5z"/>
    <path fill="#ffe140" d="M18 54h29v5h-3v7h-6v5H21v-4h-5v-9h2z"/>
    <path fill="#ff8a1f" d="M17 72h24v5h-5v6H20v-4h-5v-5h2z"/>
    <path fill="#ff3150" d="M39 59h11v4h-4v9h-7v5H28v-5h11z"/>
    <path fill="#25145f" d="M24 91h17v6h-5v8H25v-5h-4v-6h3z"/>
    <path fill="#9dfb66" d="M23 36h12v4h-4v5H20v-5h3z"/>
    <path fill="#fff06a" d="M31 56h11v4h-3v4H28v-4h3z"/>
    <path fill="#ffb33f" d="M27 75h9v4h-3v4h-9v-4h3z"/>
    <rect x="43" y="39" width="5" height="5" fill="#8ae9ff"/>
    <rect x="36" y="67" width="5" height="5" fill="#ff7cc8"/>
  </g>
</svg>
